<svg width="80" height="80" viewBox="0 0 24 25" fill="none" xmlns="http://www.w3.org/2000/svg">
<path fill-rule="evenodd" clip-rule="evenodd" d="M23.75 23.669L22.35 18.169C23.25 16.519 23.75 14.619 23.75 12.619C23.75 6.11902 18.5 0.869019 12 0.869019C5.5 0.869019 0.25 6.11902 0.25 12.619C0.25 19.119 5.5 24.369 12 24.369C14 24.369 15.9 23.869 17.55 22.969L23.05 24.369C23.45 24.469 23.85 24.069 23.75 23.669ZM22.25 12.619C22.25 14.619 21.75 16.119 20.95 17.619C20.85 17.819 20.8 18.069 20.85 18.319L21.9 22.519L17.75 21.469C17.5 21.419 17.25 21.419 17.05 21.569C16.15 22.069 14.45 22.869 12.05 22.869C6.35 22.869 1.75 18.269 1.75 12.619C1.75 6.96902 6.35 2.36902 12 2.36902C17.65 2.36902 22.25 6.96902 22.25 12.619Z" fill="#262626"/>
</svg>
