<svg width="24" height="25" viewBox="0 0 24 25" fill="none" xmlns="http://www.w3.org/2000/svg">
<g clip-path="url(#clip0_614_1514)">
<path d="M12 24.619C5.4 24.619 0 19.219 0 12.619C0 6.01902 5.4 0.619019 12 0.619019C18.6 0.619019 24 6.01902 24 12.619C24 19.219 18.6 24.619 12 24.619ZM12 2.11902C6.2 2.11902 1.5 6.81902 1.5 12.619C1.5 18.419 6.2 23.119 12 23.119C17.8 23.119 22.5 18.419 22.5 12.619C22.5 6.81902 17.8 2.11902 12 2.11902Z" fill="#262626"/>
<path d="M17.45 12.619C17.45 11.919 16.9 11.369 16.2 11.369C15.5 11.369 14.95 11.919 14.95 12.619C14.95 13.319 15.5 13.869 16.2 13.869C16.9 13.869 17.45 13.319 17.45 12.619ZM6.54999 12.619C6.54999 11.919 7.09999 11.369 7.79999 11.369C8.49999 11.369 9.04999 11.919 9.04999 12.619C9.04999 13.319 8.49999 13.869 7.79999 13.869C7.09999 13.869 6.54999 13.319 6.54999 12.619ZM12 19.269C9.39999 19.269 7.99999 17.519 7.89999 17.419C7.64999 17.119 7.69999 16.619 7.99999 16.369C8.29999 16.119 8.79999 16.169 9.04999 16.469C9.09999 16.519 10.1 17.719 11.95 17.719C13.8 17.719 14.85 16.469 14.85 16.469C15.1 16.169 15.6 16.119 15.9 16.369C16.2 16.619 16.25 17.119 16 17.419C16 17.519 14.6 19.269 12 19.269Z" fill="#262626"/>
</g>
<defs>
<clipPath id="clip0_614_1514">
<rect width="24" height="24" fill="white" transform="translate(0 0.619019)"/>
</clipPath>
</defs>
</svg>
