<svg width="80" height="78" viewBox="0 0 24 22" fill="none" xmlns="http://www.w3.org/2000/svg">
<path d="M23.9 0.519019C23.75 0.269019 23.5 0.119019 23.25 0.119019H0.75C0.45 0.169019 0.15 0.369019 0.05 0.619019C-0.05 0.869019 0 1.21902 0.2 1.46902L8.15 9.26902L10.9 20.569C10.95 20.869 11.2 21.069 11.5 21.119H11.6C11.85 21.119 12.1 20.969 12.25 20.769L23.85 1.26902C24.05 1.06902 24.05 0.769019 23.9 0.519019ZM2.6 1.66902H20.35L9 7.96902L2.6 1.66902ZM11.95 18.469L9.75 9.26902L21.2 2.91902L11.95 18.469Z" fill="#262626"/>
</svg>
