<svg width="85" height="30" viewBox="0 0 22 25" fill="none" xmlns="http://www.w3.org/2000/svg">
<path d="M20.75 24.619C20.55 24.619 20.35 24.519 20.2 24.419L11 15.119L1.8 24.419C1.6 24.619 1.25 24.719 1 24.569C0.7 24.469 0.5 24.169 0.5 23.869V1.36902C0.5 0.969019 0.85 0.619019 1.25 0.619019H20.75C21.15 0.619019 21.5 0.969019 21.5 1.36902V23.869C21.5 24.169 21.3 24.469 21.05 24.569C20.95 24.619 20.85 24.619 20.75 24.619ZM11 13.619C11.4 13.619 11.8 13.769 12.1 14.069L20 22.069V2.11902H2V22.069L9.9 14.069C10.2 13.769 10.6 13.619 11 13.619Z" fill="#262626"/>
</svg>
