<svg width="80" height="80" viewBox="0 0 24 25" fill="none" xmlns="http://www.w3.org/2000/svg">
<path d="M17.3 3.66901C20.15 3.66901 22.5 6.26901 22.5 9.41901C22.5 12.819 19.55 14.919 16.75 17.419C13.95 19.919 12.5 21.269 12 21.569C11.45 21.219 9.65 19.569 7.25 17.419C4.4 14.919 1.5 12.819 1.5 9.41901C1.5 6.26901 3.85 3.66901 6.7 3.66901C8.8 3.66901 9.95 4.66901 10.75 5.81901C11.7 7.11901 11.85 7.76901 12 7.76901C12.15 7.76901 12.3 7.11901 13.25 5.81901C14.05 4.66901 15.2 3.66901 17.3 3.66901ZM17.3 2.16901C15.05 2.16901 13.35 3.06901 12 4.96901C10.65 3.11901 8.95 2.21901 6.7 2.21901C3 2.16901 0 5.41901 0 9.41901C0 13.069 2.7 15.419 5.3 17.669C5.6 17.919 5.95 18.219 6.25 18.519L7.4 19.519C9.6 21.469 10.7 22.469 11.2 22.769C11.45 22.919 11.75 23.019 12 23.019C12.3 23.019 12.55 22.919 12.8 22.769C13.3 22.469 14.2 21.669 16.7 19.369L17.7 18.469C18.05 18.169 18.35 17.869 18.7 17.619C21.35 15.419 24 13.119 24 9.41901C24 5.41901 21 2.16901 17.3 2.16901Z" fill="#262626"/>
</svg>
