<svg xmlns="http://www.w3.org/2000/svg" width="103" height="29" fill="none"><path fill="#262626" fill-rule="evenodd" d="M5.571.1C3.47.979 1.167 3.453.441 6.56c-.923 3.933 2.91 5.592 3.227 5.048.363-.634-.689-.852-.906-2.9-.272-2.628.951-5.582 2.492-6.87.29-.244.272.091.272.708L5.472 15.65c0 2.81-.118 3.688-.327 4.567-.208.889-.543 1.487-.299 1.722.29.254 1.523-.362 2.23-1.359a7.368 7.368 0 0 0 1.205-4.15c.063-1.868.054-4.831.063-6.517 0-1.54.028-6.08-.027-8.808C8.3.435 6.441-.263 5.571.109v-.01Zm74.43 13.122a8.539 8.539 0 0 1-.797 3.399c-.77 1.558-2.383 2.039-3.072-.2-.363-1.214-.39-3.253-.118-4.957.272-1.722 1.033-3.036 2.293-2.918 1.25.118 1.83 1.722 1.695 4.676Zm-20.98 9.045c-.017 2.42-.398 4.54-1.214 5.165-1.169.87-2.718.209-2.401-1.558.28-1.56 1.631-3.154 3.625-5.112l-.01 1.505Zm-.316-9.063a9.57 9.57 0 0 1-.798 3.417c-.77 1.558-2.392 2.039-3.072-.2-.453-1.531-.344-3.507-.118-4.757.3-1.614 1.015-3.118 2.293-3.118 1.25 0 1.867 1.36 1.695 4.658Zm-12.153-.018a8.645 8.645 0 0 1-.789 3.444c-.797 1.54-2.383 2.03-3.08-.209-.5-1.604-.327-3.806-.119-4.984.309-1.767 1.088-3.009 2.293-2.9 1.25.127 1.849 1.722 1.695 4.649Zm55.689 1.64c-.299 0-.444.317-.553.843-.399 1.83-.815 2.248-1.359 2.248-.598 0-1.142-.907-1.287-2.72-.109-1.431-.09-4.06.054-6.678.027-.535-.127-1.06-1.568-1.586-.616-.227-1.522-.562-1.966.525a26.871 26.871 0 0 0-1.885 6.471c0 .054-.073.063-.09-.054-.064-.789-.236-2.23-.255-5.247 0-.59-.126-1.088-.779-1.496-.426-.272-1.704-.734-2.175-.181-.39.453-.852 1.695-1.332 3.154l-.67 1.993.008-4.422c0-.453-.308-.607-.407-.634a8.646 8.646 0 0 0-1.632-.336c-.435 0-.543.245-.543.607 0 .046-.073 4.215-.073 7.133v.417c-.245 1.34-1.033 3.162-1.894 3.162-.86 0-1.269-.76-1.269-4.24 0-2.03.064-2.91.09-4.378.019-.852.055-1.495.055-1.64-.009-.454-.788-.68-1.15-.77-.363-.082-.69-.119-.934-.1-.363.018-.607.244-.607.561v.499a3.362 3.362 0 0 0-1.659-1.35c-1.305-.39-2.664-.046-3.688 1.386a8.438 8.438 0 0 0-1.505 4.287c-.145 1.36-.09 2.728.154 3.897-.299 1.305-.87 1.848-1.486 1.848-.897 0-1.54-1.468-1.468-3.987.055-1.668.38-2.837.743-4.522.154-.725.036-1.088-.28-1.45-.29-.336-.907-.508-1.804-.3-.635.146-1.54.309-2.356.427 0 0 .045-.19.09-.544.209-1.84-1.794-1.695-2.438-1.106-.38.354-.634.761-.743 1.514-.154 1.178.816 1.73.816 1.73a20.136 20.136 0 0 1-3.081 6.553v-.635c-.01-3.045.027-5.437.045-6.298.018-.852.054-1.477.054-1.631 0-.327-.199-.453-.598-.608a4.25 4.25 0 0 0-1.214-.271c-.544-.046-.88.244-.87.589v.47a3.354 3.354 0 0 0-1.668-1.35c-1.305-.39-2.664-.045-3.688 1.387a9.153 9.153 0 0 0-1.504 4.278c-.136 1.422-.118 2.628.081 3.66-.208 1.025-.806 2.085-1.477 2.085-.861 0-1.36-.752-1.36-4.232 0-2.03.064-2.909.091-4.377.018-.852.055-1.495.055-1.64 0-.454-.789-.68-1.151-.77-.381-.091-.716-.119-.961-.091-.335.018-.57.317-.57.543v.508a3.354 3.354 0 0 0-1.668-1.35c-1.305-.39-2.656-.037-3.689 1.386-.68.934-1.223 1.967-1.504 4.26a14.3 14.3 0 0 0-.109 1.848c-.272 1.64-1.46 3.535-2.429 3.535-.57 0-1.114-1.097-1.114-3.444 0-3.127.199-7.576.226-8.002l1.468-.027c.616 0 1.17.009 1.985-.037.408-.018.797-1.486.38-1.667-.19-.082-1.54-.154-2.084-.163-.453-.01-1.704-.1-1.704-.1s.118-2.954.145-3.263c.019-.271-.317-.398-.516-.48A7.042 7.042 0 0 0 34.58.054c-.688-.136-.997 0-1.06.58-.09.88-.136 3.462-.136 3.462-.507 0-2.238-.1-2.737-.1-.471 0-.979 2.012-.326 2.04l2.9.081-.027 5.918v.426c-.48 2.474-2.148 3.806-2.148 3.806.362-1.631-.38-2.854-1.695-3.897-.49-.38-1.45-1.105-2.528-1.903 0 0 .625-.616 1.178-1.849.39-.87.408-1.866-.553-2.084-1.586-.371-2.9.789-3.29 2.04a2.366 2.366 0 0 0 .454 2.41l.136.172a77.54 77.54 0 0 1-1.27 2.338c-1.15 1.994-2.03 3.58-2.69 3.58-.526 0-.517-1.604-.517-3.109 0-1.296.09-3.244.172-5.256.027-.67-.308-1.051-.87-1.396a3.924 3.924 0 0 0-1.486-.625c-.635 0-2.447.09-4.17 5.048-.208.625-.634 1.758-.634 1.758l.037-5.954c0-.145-.073-.272-.245-.362a4.241 4.241 0 0 0-1.75-.49c-.325 0-.488.154-.488.453l-.064 9.335c0 .707.018 1.531.09 1.894.073.362.182.652.327.824.136.182.3.309.562.363.254.054 1.613.227 1.685-.29.091-.625.091-1.296.807-3.806 1.106-3.906 2.556-5.818 3.244-6.49.118-.126.254-.126.245.064l-.2 4.822c-.18 4.866.708 5.763 1.967 5.763.97 0 2.338-.96 3.807-3.389l2.446-4.078 1.432 1.323c1.16 1.087 1.54 2.139 1.287 3.126-.19.753-.924 1.541-2.211.78-.38-.227-.544-.399-.915-.644-.209-.136-.517-.18-.707-.036-.48.363-.761.834-.916 1.405-.154.553.408.852.988 1.105.499.227 1.577.427 2.266.454 2.664.09 4.803-1.287 6.29-4.84.271 3.063 1.404 4.803 3.37 4.803 1.315 0 2.638-1.703 3.218-3.37.163.679.408 1.268.725 1.775 1.522 2.402 4.468 1.876 5.945-.163.453-.625.525-.852.525-.852a2.782 2.782 0 0 0 2.665 2.601c.997 0 2.02-.47 2.746-2.093.081.181.18.344.272.507 1.522 2.402 4.467 1.876 5.945-.163l.18-.253.046 1.268-1.36 1.242c-2.283 2.084-4.023 3.67-4.15 5.519-.163 2.356 1.75 3.226 3.2 3.344a4.08 4.08 0 0 0 3.66-1.912c.707-1.042 1.178-3.29 1.142-5.51l-.054-3.226a25.871 25.871 0 0 0 4.912-8.555s.843.009 1.74-.046c.29-.018.371.036.317.245-.064.254-1.133 4.386-.154 7.141.67 1.885 2.175 2.492 3.081 2.492 1.042 0 2.048-.788 2.583-1.966l.208.38c1.523 2.402 4.46 1.876 5.945-.163.336-.453.526-.852.526-.852.326 1.994 1.876 2.61 2.764 2.61.924 0 1.813-.38 2.52-2.066.027.743.072 1.35.144 1.54.046.119.309.273.508.336.843.308 1.704.163 2.03.1.217-.046.39-.227.417-.68.063-1.205.027-3.226.39-4.722.607-2.528 1.178-3.507 1.45-3.987.154-.272.326-.317.335-.027.009.58.036 2.284.272 4.576.18 1.686.417 2.683.589 2.991.516.906 1.15.952 1.658.952.326 0 1.015-.091.952-.662-.027-.28.018-2.012.634-4.495.39-1.622 1.042-3.081 1.278-3.625.09-.19.136-.036.136 0-.055 1.106-.163 4.758.29 6.76.616 2.701 2.401 3.01 3.027 3.01 1.332 0 2.419-1.016 2.782-3.67.091-.635-.045-1.134-.435-1.134Z" clip-rule="evenodd"/></svg>