<svg xmlns="http://www.w3.org/2000/svg" width="22" height="22" fill="none"><path stroke="#262626" stroke-miterlimit="10" stroke-width="1.739" d="M11.003 1.00098a9.70512 9.70512 0 0 1 3.8085.64694 9.70491 9.70491 0 0 1 5.4391 5.26729 9.70474 9.70474 0 0 1 .7689 3.78579c0 1.3007-.2615 2.5881-.7689 3.7858a9.70467 9.70467 0 0 1-2.1847 3.1859 9.70325 9.70325 0 0 1-3.2544 2.0813 9.70557 9.70557 0 0 1-3.8085.647 10.87972 10.87972 0 0 1-2.89501-.384.79823.79823 0 0 0-.533.04l-1.984.876a.80163.80163 0 0 1-.38173.0655.8008.8008 0 0 1-.36786-.1212.80123.80123 0 0 1-.26797-.2796.80115.80115 0 0 1-.10544-.3727l-.054-1.78a.80643.80643 0 0 0-.07713-.312.80572.80572 0 0 0-.19287-.257 9.49013 9.49013 0 0 1-3.14-7.175 9.64982 9.64982 0 0 1 .75183-3.79107 9.64988 9.64988 0 0 1 5.43598-5.2729 9.64514 9.64514 0 0 1 3.8112-.63605Z"/><path fill="#262626" fill-rule="evenodd" d="M16.79 9.13197a.65961.65961 0 0 0 .0974-.44167.65935.65935 0 0 0-.2103-.40041.65903.65903 0 0 0-.8491-.03092L13.272 10.309a.62982.62982 0 0 1-.3787.1277.63028.63028 0 0 1-.3793-.1257L10.06 8.46998a1.57587 1.57587 0 0 0-1.2304-.28826 1.5759 1.5759 0 0 0-1.0466.70826L5.216 12.87a.65904.65904 0 0 0 .11057.8438.6594.6594 0 0 0 .4195.1713.65941.65941 0 0 0 .43093-.1401l2.556-2.049a.63027.63027 0 0 1 .37917-.1282.6305.6305 0 0 1 .37983.1262l2.452 1.84a1.57692 1.57692 0 0 0 1.231.2888 1.57601 1.57601 0 0 0 1.047-.7088l2.568-3.98203Z" clip-rule="evenodd"/></svg>