<svg xmlns="http://www.w3.org/2000/svg" width="22" height="22" fill="none"><path stroke="#262626" stroke-linejoin="round" stroke-width="2" d="M1.04901 6.00201H20.95"/><path stroke="#262626" stroke-linecap="round" stroke-linejoin="round" stroke-width="2" d="m12.504 1.00098 2.858 5.001M6.207 1.10999l2.795 4.892M1 11.001v3.449c0 2.849.698 4.006 1.606 4.945.94.908 2.098 1.607 4.946 1.607h6.896c2.848 0 4.006-.699 4.946-1.607.908-.939 1.606-2.096 1.606-4.945V7.552c0-2.848-.698-4.006-1.606-4.945C18.454 1.699 17.296 1 14.448 1H7.552c-2.848 0-4.006.699-4.946 1.607C1.698 3.546 1 4.704 1 7.552v3.449Z"/><path fill="#262626" fill-rule="evenodd" d="M8.76299 16.664c-.13813-.0798-.25281-.1945-.33251-.3327-.0797-.1381-.1216-.2948-.12149-.4543V10.63c-.00019-.1597.0417-.3167.12145-.455.07975-.1384.19455-.2533.33284-.33318.13828-.07989.29517-.12194.45488-.12191.1597.00003.31658.04213.45483.12207L14.218 12.466c.1383.0797.2532.1945.3331.3327.0798.1383.1219.2951.1219.4548 0 .1596-.0421.3165-.1219.4547-.0799.1383-.1948.253-.3331.3328l-4.54501 2.624c-.13834.0799-.29526.1219-.455.1219s-.31666-.042-.455-.1219v-.001Z" clip-rule="evenodd"/></svg>